<svg version="1.1" xmlns="http://www.w3.org/2000/svg" xmlns:xlink="http://www.w3.org/1999/xlink" viewBox="0 0 172 172"><defs><linearGradient x1="87.41363" y1="44.68506" x2="87.41363" y2="152.74138" gradientUnits="userSpaceOnUse" id="color-1"><stop offset="0" stop-color="#ff9f70"></stop><stop offset="1" stop-color="#050cb6"></stop></linearGradient><linearGradient x1="86" y1="16.125" x2="86" y2="155.875" gradientUnits="userSpaceOnUse" id="color-2"><stop offset="0" stop-color="#ff5300"></stop><stop offset="1" stop-color="#020549"></stop></linearGradient></defs><g fill="none" fill-rule="nonzero" stroke="none" stroke-width="none" stroke-linecap="butt" stroke-linejoin="miter" stroke-miterlimit="10" stroke-dasharray="" stroke-dashoffset="0" font-family="none" font-weight="none" font-size="none" text-anchor="none" style="mix-blend-mode: normal"><path d="M0,172v-172h172v172z" fill="none" stroke="none" stroke-width="1"></path><g><path d="M95.46,104.51956h18.08419l2.84069,-18.36906h-20.92487v-10.0405c0,-7.62981 2.494,-14.39962 9.632,-14.39962h11.47025v-16.03363c-2.01562,-0.27144 -6.27531,-0.86806 -14.32975,-0.86806c-16.81838,0 -26.67612,8.88219 -26.67612,29.11638v12.22275h-17.28869v18.36906h17.28869v47.80525c3.41581,0.51331 6.88537,0.86538 10.44362,0.86538c3.21694,0 6.35863,-0.29294 9.46,-0.71488z" fill="url(#color-1)" stroke="none" stroke-width="1"></path><path d="M86,18.8125c-37.10663,0 -67.1875,30.08087 -67.1875,67.1875c0,37.10663 30.08087,67.1875 67.1875,67.1875c37.10663,0 67.1875,-30.08087 67.1875,-67.1875c0,-37.10663 -30.08087,-67.1875 -67.1875,-67.1875z" fill="none" stroke="url(#color-2)" stroke-width="5.375"></path></g></g></svg>