<svg version="1.1" xmlns="http://www.w3.org/2000/svg" xmlns:xlink="http://www.w3.org/1999/xlink" viewBox="0 0 172 172"><defs><linearGradient x1="86.96127" y1="57.90584" x2="86.96127" y2="131.38414" gradientUnits="userSpaceOnUse" id="color-1"><stop offset="0" stop-color="#8ab4ff"></stop><stop offset="1" stop-color="#e492ff"></stop></linearGradient><linearGradient x1="86" y1="38.485" x2="86" y2="133.515" gradientUnits="userSpaceOnUse" id="color-2"><stop offset="0" stop-color="#1a6dff"></stop><stop offset="1" stop-color="#c822ff"></stop></linearGradient></defs><g fill="none" fill-rule="nonzero" stroke="none" stroke-width="none" stroke-linecap="butt" stroke-linejoin="miter" stroke-miterlimit="10" stroke-dasharray="" stroke-dashoffset="0" font-family="none" font-weight="none" font-size="none" text-anchor="none" style="mix-blend-mode: normal"><path d="M0,172v-172h172v172z" fill="none" stroke="none" stroke-width="1"></path><path d="M86,172c-47.49649,0 -86,-38.50351 -86,-86v0c0,-47.49649 38.50351,-86 86,-86v0c47.49649,0 86,38.50351 86,86v0c0,47.49649 -38.50351,86 -86,86z" fill="#ffffff" stroke="none" stroke-width="1"></path><g><path d="M92.4328,98.5933h12.29725l1.93167,-12.49096h-14.22891v-6.82754c0,-5.18827 1.69592,-9.79175 6.54976,-9.79175h7.79977v-10.90287c-1.37063,-0.18458 -4.26721,-0.59028 -9.74423,-0.59028c-11.4365,0 -18.13977,6.03989 -18.13977,19.79914v8.31147h-11.75631v12.49096h11.75631v32.50757c2.32275,0.34905 4.68205,0.58846 7.10166,0.58846c2.18752,0 4.32387,-0.1992 6.4328,-0.48611z" fill="url(#color-1)" stroke="none" stroke-width="1"></path><path d="M86,40.3125c-25.23251,0 -45.6875,20.45499 -45.6875,45.6875c0,25.23251 20.45499,45.6875 45.6875,45.6875c25.23251,0 45.6875,-20.45499 45.6875,-45.6875c0,-25.23251 -20.45499,-45.6875 -45.6875,-45.6875z" fill="none" stroke="url(#color-2)" stroke-width="5.375"></path></g><path d="M86,172c-47.49649,0 -86,-38.50351 -86,-86v0c0,-47.49649 38.50351,-86 86,-86v0c47.49649,0 86,38.50351 86,86v0c0,47.49649 -38.50351,86 -86,86z" fill="none" stroke="none" stroke-width="1"></path><path d="M86,168.56c-45.59663,0 -82.56,-36.96337 -82.56,-82.56v0c0,-45.59663 36.96337,-82.56 82.56,-82.56v0c45.59663,0 82.56,36.96337 82.56,82.56v0c0,45.59663 -36.96337,82.56 -82.56,82.56z" fill="none" stroke="none" stroke-width="1"></path></g></svg>