<svg version="1.1" xmlns="http://www.w3.org/2000/svg" xmlns:xlink="http://www.w3.org/1999/xlink" viewBox="0 0 172 172"><defs><linearGradient x1="86" y1="39.70394" x2="86" y2="133.28108" gradientUnits="userSpaceOnUse" id="color-1"><stop offset="0" stop-color="#ff0000"></stop><stop offset="1" stop-color="#020549"></stop></linearGradient><linearGradient x1="86" y1="60.72019" x2="86" y2="110.99837" gradientUnits="userSpaceOnUse" id="color-2"><stop offset="0" stop-color="#ff7070"></stop><stop offset="1" stop-color="#050cb6"></stop></linearGradient><linearGradient x1="111.585" y1="50.82063" x2="111.585" y2="69.64205" gradientUnits="userSpaceOnUse" id="color-3"><stop offset="0" stop-color="#ff7070"></stop><stop offset="1" stop-color="#050cb6"></stop></linearGradient></defs><g fill="none" fill-rule="nonzero" stroke="none" stroke-width="1" stroke-linecap="butt" stroke-linejoin="miter" stroke-miterlimit="10" stroke-dasharray="" stroke-dashoffset="0" font-family="none" font-weight="none" font-size="none" text-anchor="none" style="mix-blend-mode: normal"><path d="M0,172v-172h172v172z" fill="none"></path><path d="M86,172c-47.49649,0 -86,-38.50351 -86,-86v0c0,-47.49649 38.50351,-86 86,-86v0c47.49649,0 86,38.50351 86,86v0c0,47.49649 -38.50351,86 -86,86z" fill="#ffffff"></path><g><path d="M107.93,131.6875h-43.86c-13.09952,0 -23.7575,-10.65798 -23.7575,-23.7575v-43.86c0,-13.09952 10.65798,-23.7575 23.7575,-23.7575h43.86c13.09952,0 23.7575,10.65798 23.7575,23.7575v43.86c0,13.09952 -10.65798,23.7575 -23.7575,23.7575zM64.07,43.9675c-11.08379,0 -20.1025,9.01871 -20.1025,20.1025v43.86c0,11.08379 9.01871,20.1025 20.1025,20.1025h43.86c11.08379,0 20.1025,-9.01871 20.1025,-20.1025v-43.86c0,-11.08379 -9.01871,-20.1025 -20.1025,-20.1025z" fill="url(#color-1)"></path><path d="M86,109.7575c-13.09952,0 -23.7575,-10.65798 -23.7575,-23.7575c0,-13.09952 10.65798,-23.7575 23.7575,-23.7575c13.09952,0 23.7575,10.65798 23.7575,23.7575c0,13.09952 -10.65798,23.7575 -23.7575,23.7575zM86,69.5525c-9.06805,0 -16.4475,7.37944 -16.4475,16.4475c0,9.06988 7.37944,16.4475 16.4475,16.4475c9.06988,0 16.4475,-7.37762 16.4475,-16.4475c0,-9.06805 -7.37762,-16.4475 -16.4475,-16.4475z" fill="url(#color-2)"></path><path d="M111.585,54.9325c-3.0279,0 -5.4825,2.4546 -5.4825,5.4825c0,3.0279 2.4546,5.4825 5.4825,5.4825c3.0279,0 5.4825,-2.4546 5.4825,-5.4825c0,-3.0279 -2.4546,-5.4825 -5.4825,-5.4825z" fill="url(#color-3)"></path></g></g></svg>