<svg version="1.1" xmlns="http://www.w3.org/2000/svg" xmlns:xlink="http://www.w3.org/1999/xlink" viewBox="0 0 172 172"><defs><linearGradient x1="86" y1="52.99885" x2="86" y2="120.12708" gradientUnits="userSpaceOnUse" id="color-1"><stop offset="0" stop-color="#ff0000"></stop><stop offset="1" stop-color="#020549"></stop></linearGradient><linearGradient x1="85.57999" y1="74.3744" x2="85.57999" y2="96.87798" gradientUnits="userSpaceOnUse" id="color-2"><stop offset="0" stop-color="#ff7070"></stop><stop offset="1" stop-color="#050cb6"></stop></linearGradient><linearGradient x1="86.31801" y1="52.99885" x2="86.31801" y2="120.12708" gradientUnits="userSpaceOnUse" id="color-3"><stop offset="0" stop-color="#ff0000"></stop><stop offset="1" stop-color="#020549"></stop></linearGradient></defs><g fill="none" fill-rule="nonzero" stroke="none" stroke-width="1" stroke-linecap="butt" stroke-linejoin="miter" stroke-miterlimit="10" stroke-dasharray="" stroke-dashoffset="0" font-family="none" font-weight="none" font-size="none" text-anchor="none" style="mix-blend-mode: normal"><path d="M0,172v-172h172v172z" fill="none"></path><path d="M86,172c-47.49649,0 -86,-38.50351 -86,-86v0c0,-47.49649 38.50351,-86 86,-86v0c47.49649,0 86,38.50351 86,86v0c0,47.49649 -38.50351,86 -86,86z" fill="#ffffff"></path><g><path d="M86,117.50201c-9.53725,0 -19.07449,-0.29251 -28.94925,-0.87602c-7.44019,-0.43951 -13.44185,-6.36316 -13.96236,-13.78086c-0.78152,-11.17829 -0.78152,-22.51408 -0.0015,-33.69087c0.52201,-7.41769 6.52367,-13.34284 13.96386,-13.78236c19.75101,-1.16703 38.15048,-1.16703 57.89849,0c7.44019,0.43951 13.44185,6.36316 13.96236,13.78086c0.78152,11.17829 0.78152,22.51408 0.0015,33.69087c-0.52201,7.41769 -6.52367,13.34284 -13.96386,13.78236v0c-9.87475,0.58352 -19.412,0.87602 -28.94925,0.87602zM114.77374,113.63192l0.0885,1.49704l-0.0885,-1.49704c5.93865,-0.35101 10.72978,-5.07913 11.14679,-10.99678c0.77252,-11.03728 0.77252,-22.23207 -0.0015,-33.27236c-0.41401,-5.91615 -5.20663,-10.64427 -11.14529,-10.99528c-19.63251,-1.15953 -37.91348,-1.15953 -57.54598,0c-5.93865,0.35101 -10.72978,5.07913 -11.14679,10.99678c-0.77252,11.03728 -0.77252,22.23207 0.0015,33.27236c0.41401,5.91615 5.20663,10.64427 11.14529,10.99528c19.63101,1.15953 37.91348,1.15953 57.54598,0z" fill="url(#color-1)"></path><path d="M75.49973,97.76001v-23.52061l20.16052,11.7603z" fill="url(#color-2)"></path><path d="M73.99969,100.37157v-28.74374l24.63813,14.37187zM76.99977,76.85097v18.29597l15.6844,-9.14724z" fill="url(#color-3)"></path></g></g></svg>